<?xml version='1.0' encoding='utf-8'?>
<svg xmlns="http://www.w3.org/2000/svg" width="410pt" height="305pt" version="1.1" viewBox="0 0 410 305"> <path d="m288.71 237.13c14.875-1.9375 26.859 5.5664 33.219 12.648 5.5508 6.1875 13.379 24.562 7.9336 35.949-3.3711 7.0508-11.145 7.4648-15.094 3.5703-5.0898-5.0156-1.7539-15.766-4.1758-19.203-1.75-2.4805-5.5078-3.1914-7.6719-0.52344-4.0273 4.9805 4.6133 23.199-8.625 25.527-7.3516 1.293-11.695-4.418-11.984-11.082-0.16406-3.8828 2.1953-19.113-6.6484-15.66-5.457 2.1289-2.3594 13.574-4.0195 19.391-1.9883 6.9648-10.75 6.6562-14.855 1.9727-8.0117-9.1367-4.3984-27.285 1.3594-36.145 6.3555-9.7734 15.516-14.484 30.562-16.445zm-24.188-118.11c4.7461-2.3789 7.4961 4.9141 3.332 7.1484-2.3125 1.2383-4.668 0.007813-5.4102-1.6875-1.2617-2.8906 0.027344-4.4336 2.0781-5.4609zm-11.809 13.484c1.1562 8.1992 8.7578 18.98 19.023 16.406 7.7109-1.9336 14.062-11.934 12.629-22.539-1.1914-8.7969-8.2773-18.719-18.844-16.484-8.0195 1.6992-14.305 12.047-12.809 22.617zm-110.41-13.676c5.2305-2.0977 7.3945 5.7539 2.9453 7.5117-4.7578 1.8789-7.7383-5.5938-2.9453-7.5117zm-16.688 14.125c5.3516 27.562 35.52 16.254 31.484-6.9883-4.7852-27.547-36.078-16.652-31.484 6.9883zm73.598 30.918c7.4766-1.6211 20.613 0.71484 17.383 4.9258-1.3203 1.7227-3.9648 0.75781-6.0938 0.42188-2.5039-0.39844-5.125-0.41406-7.8008-0.32031-2.4727 0.085937-5.2148 0.90625-7.207 0.90625-2.2148 0-7.6328-3.4727 3.7188-5.9336zm0.82812 31.066c-0.082031 6.4102-0.83984 10.348-4.4844 13.586-7.332 6.5117-18.105 2.0977-21.77-7.9766-0.96484-2.6484-1.2773-4.2656-3.832-5.1875-5.5859-2.0195-9.8359 4.9609-1.3789 15.344 2.6055 3.1953 5.6211 6.0742 10.234 8.1875 14.266 6.5195 21.973-3.3711 26.156-5.8477 11.129 11.309 26.316 10.199 35.988-1.8594 8.6719-10.816 4.5898-17.32-0.68359-15.984-2.5156 0.64062-3.2539 2.6094-4.0508 4.9727-3.5039 10.387-14.07 14.707-21.691 8.6484-3.8398-3.0508-4.6172-7.3047-4.7891-13.918 21.008-6.293 32.477-28.699 14.66-37.773-5.8008-2.9531-11.746-3.9766-19.434-3.9609-34.02 0.070313-32.688 22.652-19.754 33.238 5.0859 4.1641 8.168 5.7422 14.828 8.5312zm-86.129 42.238c14.676-1.7539 27.691 4.6562 34.324 11.848 12.113 13.141 12.293 36.836 3.1172 42.484-2.5312 1.5586-6.4531 2.2656-9.5508 0.80078-5.8906-2.7773-3.9375-12.25-4.4102-19.012-0.23828-3.3984-2.1953-5.9883-5.9023-5.2383-8.9805 1.8242 1.8789 19.68-9.2305 25.84-2.8945 1.6055-6.2422 1.9766-9.6602 0.22656-9.8398-5.0469 0.51172-23.957-8.125-26.078-8.2695-2.0312-5.5977 10.402-6.8281 16.094-2.4648 11.398-22.066 12.035-19.062-11.852 2.5195-20.039 14.945-32.68 35.328-35.113zm53.746 31.246c-1.3203-2.5898-1.5391-6.4844-2.5273-9.3164-1.0625-3.0547-2.2305-5.1797-3.332-7.9609 3.0664 0.73047 5.8867 1.9062 9.5117 2.6836 16.332 3.4883 40.434 3.5 56.949 1.7578 12.109-1.2734 13.477-3.1602 19.82-4.3672-3.0625 5.6133-3.8516 9.0859-5.1094 15.031-0.74219 3.5117-0.23047 1.1641-0.6875 2.2188zm33.754-213.37c27.758-5.9023 20.438 38.23 23.246 56.422 5.1562 33.465 35.453 54.082 42.574 78.332 3.1836 10.848 3.3516 24.027-1.3594 33.711-9.1172 18.738-30.156 23.125-56.859 23.172-26.348 0.046875-50.41-1.5781-62.141-18.32-5.4219-7.7461-7.7969-20.711-5.5-32.691 5.3633-28.008 34.258-45.102 42.531-77.949 3.1445-12.484 1.4961-24.148 2.9258-37.117 1.2188-11.07 2.6289-23.02 14.582-25.559zm-67.246 170.59c-4.2383-1.3164-11.137-7.0508-14.031-9.6484-13.113-11.777-19.562-26.75-23.23-45.543-5.4688-28.039-5.3828-55.66 2.25-82.176 14.707-51.086 48.938-77.949 105.81-78.172 28.953-0.11328 57.008 7.1641 76.793 27.176 14.812 14.98 22.922 30.043 29.18 51.297 6.9727 23.684 7.625 57.434 2.0547 82.281-2.9414 13.117-6.4258 23.551-12.676 33.184-5.168 7.9609-16.129 18.41-24.445 21.555 2.9062-9.7852 4.6758-16.312 3.1133-28.195-2.3711-18.055-11.098-29.785-21.309-43.434-4.5078-6.0195-9.25-12.539-13.281-19.074-11.492-18.637-10.086-28.277-11.066-53.633-0.75781-19.566-8.7148-36.414-28.363-36.465-19.242-0.050781-27.754 17.234-28.309 36.445-0.71875 25.051 0.20312 35.598-11.129 53.641-8.5039 13.535-18.027 24.594-26.363 38.363-8.6758 14.328-11.457 34.371-5 52.398zm192.63-100.33c0-26.414-9.543-55.984-22.871-76.953-6.2812-9.8789-13.574-16.949-14.535-18.492 9.8789 0.78906 14.16 2.5039 21.281 6.3633 7.6406 4.1445 22.227 19.402 27.863 26.113 1.1055 1.3203 2.1016 2.125 3.2656 3.4375 22.039 24.824 58.688 29.383 42.758 78.172-2.1875 6.707-5.4531 12.715-8.5391 18.895-3.0273 6.0703-5.9648 11.562-8.7852 18.203-6.8125 16.023-4.7109 27.59-8.2266 32.215-8.7188 11.469-30.812-7.1367-34.637-26.172-3.1328-15.578 2.3828-32.75 2.4258-49.195zm-206.36-95.422c-1.3789 1.9961-5.4922 6.0078-8.5039 10.043-21.559 28.922-28.836 59.879-28.801 97.516 0.019531 23.418 9.2344 43.281-2.8594 62.316-4 6.293-10.926 14.758-19.387 16.578-13.723 2.957-11.562-11.641-13.941-21.57-2.6484-11.062-5.5547-17.066-10.195-26.199-8.5898-16.91-19.004-35.875-13.977-55.973 5.3438-21.359 26.062-26.316 44.5-45.863 2.9805-3.1562 5.7266-6.3203 8.6914-9.293 1.6328-1.6406 2.7539-3.0117 4.2539-4.75 1.3984-1.6211 3.1133-2.9023 4.5703-4.3984 9.3711-9.6445 19.715-18.504 35.648-18.406zm-26.938 166c2.2539 2.6523 5.5859 14.785 19.652 27.531 1.2344 1.1172 2.8477 2.2852 3.8203 3.5039-23.195-0.33203-41.609 15.457-46.824 36.902-0.36328 1.4922-0.60547 3.2891-1.3984 4.6484-12.277-0.089844-24.586-0.007812-36.863 0h-18.434c-5.375 0-13.398-1.375-13.461 4.7578-0.058594 6.3672 7.8242 5.0234 13.461 5.0234 8.707 0 52.695-0.47266 54.934 0.26562 0.98828 2.6133 0 5.9844 2.8945 11.945 6.1758 12.719 22.324 13.652 29.836 6.7891 3.5938 2.8711 5.7969 7.0586 15.387 7.6953 3.5 0.23438 6.9258-0.66797 9.5547-1.8594 3.2539-1.4727 4.8516-3.7734 6.9766-5.1016 3.1758 2.6562 5.3867 4.3281 11.008 5.1406 11.961 1.7188 22.555-10.012 23.672-24.902l74.465 0.027344c1.6367 10.379 4.4453 16.59 11.023 21.352 8.2891 6 16.203 4.2148 23.688-1.5469 2.9883 1.7969 6.7773 7.3711 16.113 6.8867 9.7148-0.5 11.742-4.5898 15.805-7.5156 3.4297 2.0039 5.3359 3.832 10.797 4.0938 4.4805 0.21484 8.8477-1.3281 11.773-3.0352 9.3906-5.4766 8.5938-13.453 10.074-19.883 2.9023-1.1797 30.895-0.35938 36.586-0.35547h18.434c5.4531 0 13.746 1.5117 13.527-5.0234-0.20703-6.2031-7.8008-4.7656-13.527-4.7578l-55.742-0.019531c-1.293-11.688-9.0195-24.176-15.309-29.367-8.9727-7.4141-16.793-11.488-32.629-12.234 1.0156-1.1484 2.1016-1.8164 3.4648-3.0391 1.3008-1.168 2.3125-2.0117 3.5195-3.2383 5.543-5.6094 14.293-17.23 16.234-24.727 0.71875 0.84375 3.7188 7.3203 6.0039 10.66 17.938 26.164 42.551 25.875 48.27 5.4375 2.2148-7.9336 0.14844-12.953 6.3359-27.363 6.6758-15.539 16.324-28.703 20.094-46.891 4.6367-22.383-1.8047-39.402-13.398-50.477-12.426-11.871-19.953-13.133-36.402-30.586-15.754-16.719-33.793-40.363-63.414-36.207-6.0703 0.85156-2.6406 1.9023-11.043-3.5195-35.984-23.234-104.65-22.738-139.13 2.6016-2.7852 2.0469-1.8906 1.8906-5.7969 1.1758-11.254-2.0547-20.023 0.49609-28.367 4.2266-3.6953 1.6484-7.2891 3.9102-10.492 6.1406-3.5938 2.5-5.9844 5.0781-8.8008 7.8359-11.492 11.242-20.523 23.156-33.746 33.227-6.793 5.1719-12.809 9.2148-19.016 14.691-11.32 9.9805-18.789 28.215-13.98 50.062 5.7031 25.906 18.539 36.922 24.031 59.605 1.8867 7.7852-0.22266 28.754 19.988 30.309 15.688 1.207 32.461-19.27 36.352-30.887z" fill-rule="evenodd"/> </svg>